# xmcd CD database file
#
# Track frame offsets:
#	150
#	23277
#	44955
#	68032
#
# Disc length: 1194 seconds
#
# Revision: 0
# Processed by: cddbd v1.5PL3 Copyright (c) Steve Scherf et al.
# Submitted via: CDex 1.50Beta7
#
DISCID=2d04a804
DTITLE=AiM - フレンド-いつまでも忘れない-
DYEAR=2001
DGENRE=Pop
TTITLE0=フレンド-いつまでも忘れない-
TTITLE1=Party
TTITLE2=フレンド-いつまでも忘れない-(Original Karaoke)
TTITLE3=Party(Original Karaoke)
EXTD=YEAR: 2001
EXTT0=
EXTT1=
EXTT2=
EXTT3=
PLAYORDER=
